<?xml version="1.0" encoding="UTF-8" standalone="no"?>
<svg
   xmlns:dc="http://purl.org/dc/elements/1.1/"
   xmlns:cc="http://creativecommons.org/ns#"
   xmlns:rdf="http://www.w3.org/1999/02/22-rdf-syntax-ns#"
   xmlns:svg="http://www.w3.org/2000/svg"
   xmlns="http://www.w3.org/2000/svg"
   xmlns:sodipodi="http://sodipodi.sourceforge.net/DTD/sodipodi-0.dtd"
   xmlns:inkscape="http://www.inkscape.org/namespaces/inkscape"
   xml:space="preserve"
   enable-background="new 0 0 512 512"
   viewBox="0 0 512 512"
   height="512px"
   width="512px"
   y="0px"
   x="0px"
   id="Layer_1"
   version="1.1"
   inkscape:version="0.91 r13725"
   sodipodi:docname="dl.svg"><sodipodi:namedview
     pagecolor="#ffffff"
     bordercolor="#666666"
     borderopacity="1"
     objecttolerance="10"
     gridtolerance="10"
     guidetolerance="10"
     inkscape:pageopacity="0"
     inkscape:pageshadow="2"
     inkscape:window-width="1920"
     inkscape:window-height="1057"
     id="namedview3406"
     showgrid="false"
     inkscape:zoom="1.6972656"
     inkscape:cx="256"
     inkscape:cy="256"
     inkscape:window-x="0"
     inkscape:window-y="0"
     inkscape:window-maximized="0"
     inkscape:current-layer="Layer_1" /><metadata
     id="metadata141"><rdf:RDF><cc:Work
         rdf:about=""><dc:format>image/svg+xml</dc:format><dc:type
           rdf:resource="http://purl.org/dc/dcmitype/StillImage" /><dc:title /></cc:Work></rdf:RDF></metadata><defs
     id="defs139" /><g
     style="fill:#ffffff"
     id="g3"
     opacity="0.3"><line
       style="fill:#ffffff"
       id="line5"
       y2="512"
       x2="48"
       y1="0"
       x1="48"
       stroke="#B35047"
       fill="none" /><line
       style="fill:#ffffff"
       id="line7"
       y2="512"
       x2="80"
       y1="0"
       x1="80"
       stroke="#B35047"
       fill="none" /><line
       style="fill:#ffffff"
       id="line9"
       y2="512"
       x2="112"
       y1="0"
       x1="112"
       stroke="#B35047"
       fill="none" /><line
       style="fill:#ffffff"
       id="line11"
       y2="512"
       x2="144"
       y1="0"
       x1="144"
       stroke="#B35047"
       fill="none" /><line
       style="fill:#ffffff"
       id="line13"
       y2="512"
       x2="176"
       y1="0"
       x1="176"
       stroke="#B35047"
       fill="none" /><line
       style="fill:#ffffff"
       id="line15"
       y2="512"
       x2="208"
       y1="0"
       x1="208"
       stroke="#B35047"
       fill="none" /><line
       style="fill:#ffffff"
       id="line17"
       y2="512"
       x2="240"
       y1="0"
       x1="240"
       stroke="#B35047"
       fill="none" /><line
       style="fill:#ffffff"
       id="line19"
       y2="512"
       x2="272"
       y1="0"
       x1="272"
       stroke="#B35047"
       fill="none" /><line
       style="fill:#ffffff"
       id="line21"
       y2="512"
       x2="304"
       y1="0"
       x1="304"
       stroke="#B35047"
       fill="none" /><line
       style="fill:#ffffff"
       id="line23"
       y2="512"
       x2="336"
       y1="0"
       x1="336"
       stroke="#B35047"
       fill="none" /><line
       style="fill:#ffffff"
       id="line25"
       y2="512"
       x2="368"
       y1="0"
       x1="368"
       stroke="#B35047"
       fill="none" /><line
       style="fill:#ffffff"
       id="line27"
       y2="512"
       x2="400"
       y1="0"
       x1="400"
       stroke="#B35047"
       fill="none" /><line
       style="fill:#ffffff"
       id="line29"
       y2="512"
       x2="432"
       y1="0"
       x1="432"
       stroke="#B35047"
       fill="none" /><line
       style="fill:#ffffff"
       id="line31"
       y2="512"
       x2="464"
       y1="0"
       x1="464"
       stroke="#B35047"
       fill="none" /><line
       style="fill:#ffffff"
       id="line33"
       y2="512"
       x2="496"
       y1="0"
       x1="496"
       stroke="#B35047"
       fill="none" /><line
       style="fill:#ffffff"
       id="line35"
       y2="48"
       x2="512"
       y1="48"
       x1="0"
       stroke="#B35047"
       fill="none" /><line
       style="fill:#ffffff"
       id="line37"
       y2="80"
       x2="512"
       y1="80"
       x1="0"
       stroke="#B35047"
       fill="none" /><line
       style="fill:#ffffff"
       id="line39"
       y2="112"
       x2="512"
       y1="112"
       x1="0"
       stroke="#B35047"
       fill="none" /><line
       style="fill:#ffffff"
       id="line41"
       y2="144"
       x2="512"
       y1="144"
       x1="0"
       stroke="#B35047"
       fill="none" /><line
       style="fill:#ffffff"
       id="line43"
       y2="176"
       x2="512"
       y1="176"
       x1="0"
       stroke="#B35047"
       fill="none" /><line
       style="fill:#ffffff"
       id="line45"
       y2="208"
       x2="512"
       y1="208"
       x1="0"
       stroke="#B35047"
       fill="none" /><line
       style="fill:#ffffff"
       id="line47"
       y2="240"
       x2="512"
       y1="240"
       x1="0"
       stroke="#B35047"
       fill="none" /><line
       style="fill:#ffffff"
       id="line49"
       y2="272"
       x2="512"
       y1="272"
       x1="0"
       stroke="#B35047"
       fill="none" /><line
       style="fill:#ffffff"
       id="line51"
       y2="304"
       x2="512"
       y1="304"
       x1="0"
       stroke="#B35047"
       fill="none" /><line
       style="fill:#ffffff"
       id="line53"
       y2="336"
       x2="512"
       y1="336"
       x1="0"
       stroke="#B35047"
       fill="none" /><line
       style="fill:#ffffff"
       id="line55"
       y2="368"
       x2="512"
       y1="368"
       x1="0"
       stroke="#B35047"
       fill="none" /><line
       style="fill:#ffffff"
       id="line57"
       y2="400"
       x2="512"
       y1="400"
       x1="0"
       stroke="#B35047"
       fill="none" /><line
       style="fill:#ffffff"
       id="line59"
       y2="432"
       x2="512"
       y1="432"
       x1="0"
       stroke="#B35047"
       fill="none" /><line
       style="fill:#ffffff"
       id="line61"
       y2="464"
       x2="512"
       y1="464"
       x1="0"
       stroke="#B35047"
       fill="none" /><line
       style="fill:#ffffff"
       id="line63"
       y2="496"
       x2="512"
       y1="496"
       x1="0"
       stroke="#B35047"
       fill="none" /><line
       style="fill:#ffffff"
       id="line65"
       y2="16"
       x2="512"
       y1="16"
       x1="0"
       stroke="#B35047"
       fill="none" /><line
       style="fill:#ffffff"
       id="line67"
       y2="512"
       x2="16"
       y1="0"
       x1="16"
       stroke="#B35047"
       fill="none" /></g><path
     style="fill:#ffffff"
     id="path133"
     d="M480,224c-17.688,0-32,14.328-32,32v192H64V256c0-17.672-14.312-32-32-32  S0,238.328,0,256v224c0,17.672,14.312,32,32,32h448c17.688,0,32-14.328,32-32V256C512,238.328,497.688,224,480,224z"
     clip-rule="evenodd"
     fill-rule="evenodd" /><path
     style="fill:#ffffff"
     id="path135"
     d="M288,224V28.091C288,12.578,273.688,0,256,0s-32,12.578-32,28.091V224h-96l128,128  l128-128H288z"
     clip-rule="evenodd"
     fill-rule="evenodd" /></svg>