<?xml version="1.0" encoding="UTF-8" standalone="no"?>
<svg
   xmlns:dc="http://purl.org/dc/elements/1.1/"
   xmlns:cc="http://creativecommons.org/ns#"
   xmlns:rdf="http://www.w3.org/1999/02/22-rdf-syntax-ns#"
   xmlns:svg="http://www.w3.org/2000/svg"
   xmlns="http://www.w3.org/2000/svg"
   version="1.1"
   id="Layer_1"
   x="0px"
   y="0px"
   width="512px"
   height="512px"
   viewBox="0 0 512 512"
   enable-background="new 0 0 512 512"
   xml:space="preserve"><metadata
     id="metadata141"><rdf:RDF><cc:Work
         rdf:about=""><dc:format>image/svg+xml</dc:format><dc:type
           rdf:resource="http://purl.org/dc/dcmitype/StillImage" /><dc:title></dc:title></cc:Work></rdf:RDF></metadata><defs
     id="defs139" /><g
     opacity="0.3"
     id="g3"
     style="fill:#207896;fill-opacity:1"><line
       fill="none"
       stroke="#B35047"
       x1="48"
       y1="0"
       x2="48"
       y2="512"
       id="line5"
       style="fill:#207896;fill-opacity:1" /><line
       fill="none"
       stroke="#B35047"
       x1="80"
       y1="0"
       x2="80"
       y2="512"
       id="line7"
       style="fill:#207896;fill-opacity:1" /><line
       fill="none"
       stroke="#B35047"
       x1="112"
       y1="0"
       x2="112"
       y2="512"
       id="line9"
       style="fill:#207896;fill-opacity:1" /><line
       fill="none"
       stroke="#B35047"
       x1="144"
       y1="0"
       x2="144"
       y2="512"
       id="line11"
       style="fill:#207896;fill-opacity:1" /><line
       fill="none"
       stroke="#B35047"
       x1="176"
       y1="0"
       x2="176"
       y2="512"
       id="line13"
       style="fill:#207896;fill-opacity:1" /><line
       fill="none"
       stroke="#B35047"
       x1="208"
       y1="0"
       x2="208"
       y2="512"
       id="line15"
       style="fill:#207896;fill-opacity:1" /><line
       fill="none"
       stroke="#B35047"
       x1="240"
       y1="0"
       x2="240"
       y2="512"
       id="line17"
       style="fill:#207896;fill-opacity:1" /><line
       fill="none"
       stroke="#B35047"
       x1="272"
       y1="0"
       x2="272"
       y2="512"
       id="line19"
       style="fill:#207896;fill-opacity:1" /><line
       fill="none"
       stroke="#B35047"
       x1="304"
       y1="0"
       x2="304"
       y2="512"
       id="line21"
       style="fill:#207896;fill-opacity:1" /><line
       fill="none"
       stroke="#B35047"
       x1="336"
       y1="0"
       x2="336"
       y2="512"
       id="line23"
       style="fill:#207896;fill-opacity:1" /><line
       fill="none"
       stroke="#B35047"
       x1="368"
       y1="0"
       x2="368"
       y2="512"
       id="line25"
       style="fill:#207896;fill-opacity:1" /><line
       fill="none"
       stroke="#B35047"
       x1="400"
       y1="0"
       x2="400"
       y2="512"
       id="line27"
       style="fill:#207896;fill-opacity:1" /><line
       fill="none"
       stroke="#B35047"
       x1="432"
       y1="0"
       x2="432"
       y2="512"
       id="line29"
       style="fill:#207896;fill-opacity:1" /><line
       fill="none"
       stroke="#B35047"
       x1="464"
       y1="0"
       x2="464"
       y2="512"
       id="line31"
       style="fill:#207896;fill-opacity:1" /><line
       fill="none"
       stroke="#B35047"
       x1="496"
       y1="0"
       x2="496"
       y2="512"
       id="line33"
       style="fill:#207896;fill-opacity:1" /><line
       fill="none"
       stroke="#B35047"
       x1="0"
       y1="48"
       x2="512"
       y2="48"
       id="line35"
       style="fill:#207896;fill-opacity:1" /><line
       fill="none"
       stroke="#B35047"
       x1="0"
       y1="80"
       x2="512"
       y2="80"
       id="line37"
       style="fill:#207896;fill-opacity:1" /><line
       fill="none"
       stroke="#B35047"
       x1="0"
       y1="112"
       x2="512"
       y2="112"
       id="line39"
       style="fill:#207896;fill-opacity:1" /><line
       fill="none"
       stroke="#B35047"
       x1="0"
       y1="144"
       x2="512"
       y2="144"
       id="line41"
       style="fill:#207896;fill-opacity:1" /><line
       fill="none"
       stroke="#B35047"
       x1="0"
       y1="176"
       x2="512"
       y2="176"
       id="line43"
       style="fill:#207896;fill-opacity:1" /><line
       fill="none"
       stroke="#B35047"
       x1="0"
       y1="208"
       x2="512"
       y2="208"
       id="line45"
       style="fill:#207896;fill-opacity:1" /><line
       fill="none"
       stroke="#B35047"
       x1="0"
       y1="240"
       x2="512"
       y2="240"
       id="line47"
       style="fill:#207896;fill-opacity:1" /><line
       fill="none"
       stroke="#B35047"
       x1="0"
       y1="272"
       x2="512"
       y2="272"
       id="line49"
       style="fill:#207896;fill-opacity:1" /><line
       fill="none"
       stroke="#B35047"
       x1="0"
       y1="304"
       x2="512"
       y2="304"
       id="line51"
       style="fill:#207896;fill-opacity:1" /><line
       fill="none"
       stroke="#B35047"
       x1="0"
       y1="336"
       x2="512"
       y2="336"
       id="line53"
       style="fill:#207896;fill-opacity:1" /><line
       fill="none"
       stroke="#B35047"
       x1="0"
       y1="368"
       x2="512"
       y2="368"
       id="line55"
       style="fill:#207896;fill-opacity:1" /><line
       fill="none"
       stroke="#B35047"
       x1="0"
       y1="400"
       x2="512"
       y2="400"
       id="line57"
       style="fill:#207896;fill-opacity:1" /><line
       fill="none"
       stroke="#B35047"
       x1="0"
       y1="432"
       x2="512"
       y2="432"
       id="line59"
       style="fill:#207896;fill-opacity:1" /><line
       fill="none"
       stroke="#B35047"
       x1="0"
       y1="464"
       x2="512"
       y2="464"
       id="line61"
       style="fill:#207896;fill-opacity:1" /><line
       fill="none"
       stroke="#B35047"
       x1="0"
       y1="496"
       x2="512"
       y2="496"
       id="line63"
       style="fill:#207896;fill-opacity:1" /><line
       fill="none"
       stroke="#B35047"
       x1="0"
       y1="16"
       x2="512"
       y2="16"
       id="line65"
       style="fill:#207896;fill-opacity:1" /><line
       fill="none"
       stroke="#B35047"
       x1="16"
       y1="0"
       x2="16"
       y2="512"
       id="line67"
       style="fill:#207896;fill-opacity:1" /></g><path
     fill-rule="evenodd"
     clip-rule="evenodd"
     d="M480,224c-17.688,0-32,14.328-32,32v192H64V256c0-17.672-14.312-32-32-32  S0,238.328,0,256v224c0,17.672,14.312,32,32,32h448c17.688,0,32-14.328,32-32V256C512,238.328,497.688,224,480,224z"
     id="path133"
     style="fill:#207896;fill-opacity:1" /><path
     fill-rule="evenodd"
     clip-rule="evenodd"
     d="M288,224V28.091C288,12.578,273.688,0,256,0s-32,12.578-32,28.091V224h-96l128,128  l128-128H288z"
     id="path135"
     style="fill:#207896;fill-opacity:1" /></svg>